<?xml version="1.0" encoding="UTF-8" standalone="no"?>
<!-- Created with Inkscape (http://www.inkscape.org/) -->
<svg
   xmlns:dc="http://purl.org/dc/elements/1.1/"
   xmlns:cc="http://web.resource.org/cc/"
   xmlns:rdf="http://www.w3.org/1999/02/22-rdf-syntax-ns#"
   xmlns:svg="http://www.w3.org/2000/svg"
   xmlns="http://www.w3.org/2000/svg"
   xmlns:sodipodi="http://sodipodi.sourceforge.net/DTD/sodipodi-0.dtd"
   xmlns:inkscape="http://www.inkscape.org/namespaces/inkscape"
   id="svg2187"
   sodipodi:version="0.32"
   inkscape:version="0.45.1"
   width="444"
   height="600"
   version="1.0"
   sodipodi:docbase="C:\Users\Herbert Püttmann\Desktop"
   sodipodi:docname="Barack_Obama2.svg"
   inkscape:output_extension="org.inkscape.output.svg.inkscape">
  <metadata
     id="metadata2192">
    <rdf:RDF>
      <cc:Work
         rdf:about="">
        <dc:format>image/svg+xml</dc:format>
        <dc:type
           rdf:resource="http://purl.org/dc/dcmitype/StillImage" />
      </cc:Work>
    </rdf:RDF>
  </metadata>
  <defs
     id="defs2190" />
  <sodipodi:namedview
     inkscape:window-height="575"
     inkscape:window-width="765"
     inkscape:pageshadow="2"
     inkscape:pageopacity="0.0"
     guidetolerance="10.0"
     gridtolerance="10.0"
     objecttolerance="10.0"
     borderopacity="1.0"
     bordercolor="#666666"
     pagecolor="#ffffff"
     id="base"
     inkscape:zoom="0.62833333"
     inkscape:cx="222"
     inkscape:cy="300"
     inkscape:window-x="184"
     inkscape:window-y="184"
     inkscape:current-layer="svg2187" />
  <path
     style="fill:#000000"
     d="M 3.1830215,522.95093 C 3.1830215,468.03748 3.4611815,451.45093 4.3820915,451.45093 C 7.3840712,451.45093 45.412282,438.69872 68.683022,429.88854 C 92.234877,420.97194 108.84781,411.33701 116.45799,402.18074 C 118.78175,399.38487 123.00918,394.58681 125.85226,391.51839 C 128.69534,388.44997 132.2204,383.91703 133.68572,381.44519 C 136.34994,376.95093 136.34994,376.95093 135.82738,381.95093 C 135.53996,384.70093 134.64927,389.20093 133.84807,391.95093 C 130.96897,401.83293 130.09741,406.94267 129.09011,419.84586 C 127.83064,435.97925 128.09696,438.49996 135.28197,478.45093 C 136.32058,484.22593 138.50649,498.41335 140.13954,509.97852 C 141.7726,521.5437 143.55834,533.2437 144.10787,535.97852 C 144.65739,538.71335 145.34706,544.32593 145.64047,548.45093 C 146.48476,560.32057 148.33282,575.74437 150.76272,591.20093 C 151.27365,594.45093 151.27365,594.45093 77.228342,594.45093 L 3.1830215,594.45093 L 3.1830215,522.95093 z M 187.18501,592.78272 C 187.18113,590.50453 188.4161,588.45093 189.79001,588.45093 C 190.55616,588.45093 191.18302,588.92749 191.18302,589.50995 C 191.18302,591.04395 192.98168,589.69726 194.34136,587.14524 C 195.40843,585.14244 195.36156,585.07378 193.80436,586.35855 C 191.71802,588.07988 189.58113,586.46183 190.56268,583.90395 C 191.00727,582.74536 191.98139,582.37039 193.69546,582.69806 C 195.06362,582.9596 196.18334,582.89849 196.18373,582.56226 C 196.18411,582.22603 197.30911,581.88603 198.68373,581.80672 C 201.13382,581.66534 202.03425,582.80681 200.31218,583.8711 C 199.83322,584.16712 199.11615,585.88118 198.71869,587.68012 C 198.32123,589.47907 197.7848,590.41602 197.52663,589.76223 C 197.20846,588.95653 196.28299,589.24672 194.65423,590.66291 C 193.33258,591.81207 192.47703,593.11763 192.753,593.56417 C 193.02898,594.0107 191.88952,594.2804 190.22088,594.16349 C 188.55224,594.04658 187.1861,593.42523 187.18501,592.78272 z M 195.22886,592.36528 C 195.84277,591.21818 196.59277,590.52735 196.89552,590.8301 C 198.25737,592.19195 201.18302,589.20375 201.18302,586.45093 C 201.18302,584.60435 201.87987,583.14835 203.06799,582.51249 C 204.10473,581.95765 205.2383,580.36682 205.58704,578.97731 C 205.93579,577.5878 206.88755,576.45093 207.70207,576.45093 C 209.57903,576.45093 209.56028,576.94553 207.56801,579.98611 C 206.01245,582.3602 206.03789,582.45093 208.25914,582.45093 C 210.50159,582.45093 210.51167,582.49148 208.62415,583.91913 C 206.05968,585.85879 205.10324,585.8224 205.87375,583.81448 C 206.30724,582.68483 206.06525,582.32984 205.09237,582.66822 C 204.31723,582.93783 203.81493,583.89786 203.97615,584.80162 C 204.31755,586.71535 197.5122,594.45093 195.4872,594.45093 C 194.40371,594.45093 194.34901,594.00929 195.22886,592.36528 z M 214.50768,593.79294 C 214.86957,593.43104 214.66578,592.53262 214.05481,591.79645 C 213.19951,590.76587 213.77078,589.54275 216.53811,586.47965 C 219.9372,582.71726 222.06345,577.99803 220.88876,576.82334 C 220.59482,576.52939 219.38061,576.81 218.19053,577.44691 C 217.00044,578.08383 215.41509,578.37023 214.66753,578.08336 C 213.91952,577.79632 213.10747,578.32379 212.86167,579.25636 C 212.54322,580.46454 212.38173,580.30512 212.29902,578.70093 C 212.22433,577.25211 212.75575,576.45093 213.79143,576.45093 C 214.98359,576.45093 215.2461,575.8384 214.80579,574.08407 C 214.34427,572.24522 214.92081,571.12978 217.39016,569.08407 C 220.19488,566.76052 220.05374,565.85517 216.95981,566.32358 C 216.56204,566.3838 216.50579,565.08709 216.83481,563.442 C 217.51941,560.01897 215.47065,559.30616 212.75445,562.02236 C 210.98879,563.78802 210.66199,564.89098 212.18302,563.95093 C 212.73302,563.61101 213.18302,563.99765 213.18302,564.81013 C 213.18302,565.6226 213.49227,567.11166 213.87025,568.11914 C 214.42636,569.60143 214.28326,569.73844 213.12025,568.83724 C 211.10416,567.27499 208.18302,567.50417 208.18302,569.22459 C 208.18302,570.09403 207.58849,570.43676 206.68302,570.0893 C 205.66273,569.69778 205.18302,570.14328 205.18302,571.48231 C 205.18302,574.02431 202.69885,574.00941 199.95265,571.45093 C 198.77193,570.35093 198.26989,569.45093 198.83699,569.45093 C 199.40409,569.45093 200.72315,567.86317 201.76823,565.92257 C 203.4851,562.73453 203.78965,562.56006 204.9257,564.1137 C 205.61722,565.05942 206.18302,565.29718 206.18302,564.64206 C 206.18302,563.98694 206.65266,563.45093 207.22666,563.45093 C 208.76855,563.45093 212.72894,559.38357 214.5294,555.95093 C 215.80797,553.5133 216.11045,553.331 216.14298,554.97842 C 216.165,556.09355 216.76784,557.89355 217.48262,558.97842 C 218.1974,560.0633 218.7094,561.95167 218.62041,563.17479 C 218.53141,564.39791 218.8155,565.17807 219.25171,564.90848 C 219.68792,564.63888 220.34098,564.8975 220.70295,565.48318 C 221.1606,566.22368 221.79087,566.19135 222.77205,565.37704 C 224.84152,563.65953 224.49159,562.21822 222.18302,562.95093 C 221.03571,563.31507 220.18302,563.13063 220.18302,562.51832 C 220.18302,561.93125 220.85802,561.39468 221.68302,561.32593 C 222.50802,561.25718 223.71691,561.14468 224.36945,561.07593 C 225.02199,561.00718 225.93486,559.48843 226.39804,557.70093 C 227.28234,554.28833 228.88796,553.60653 231.10802,555.70093 C 232.16802,556.70093 232.52469,556.70093 232.89135,555.70093 C 233.14344,555.01343 234.42135,554.45093 235.73117,554.45093 C 238.19852,554.45093 240.75744,551.18938 239.67025,549.43026 C 239.33735,548.89163 239.54154,548.45093 240.124,548.45093 C 240.70646,548.45093 241.14749,547.66343 241.10407,546.70093 C 241.05691,545.65549 240.82206,545.45419 240.52074,546.20093 C 240.24333,546.88843 239.37885,547.45093 238.59969,547.45093 C 236.85095,547.45093 236.71545,544.78458 238.43302,544.17117 C 239.12052,543.92563 239.31177,543.32938 238.85802,542.84617 C 238.39634,542.35451 237.61401,542.71632 237.08157,543.66773 C 235.83986,545.88655 233.20539,544.84416 233.10407,542.09394 C 233.06065,540.91529 232.80658,540.48815 232.53946,541.14475 C 231.97508,542.53208 229.1815,541.78218 227.57306,539.81158 C 226.96258,539.06365 225.30753,538.35607 223.89516,538.23918 C 222.48278,538.12229 221.5558,537.65678 221.83519,537.20471 C 222.11458,536.75265 221.21095,536.58809 219.82711,536.83902 C 216.26913,537.48421 213.94891,533.65893 214.22712,527.60646 C 214.56321,520.29471 214.35172,519.45093 212.18302,519.45093 C 211.07191,519.45093 210.18302,518.78426 210.18302,517.95093 C 210.18302,514.98707 208.37293,516.54687 205.71414,521.80188 C 203.02018,527.1264 185.28769,551.65018 183.1976,552.94192 C 181.35003,554.08378 205.22406,516.57132 208.36657,513.39476 C 209.15217,512.60065 210.10407,511.13491 210.48191,510.13755 C 210.89045,509.05914 211.65202,508.62276 212.3609,509.06087 C 213.0165,509.46605 215.71968,509.75786 218.36796,509.70932 C 221.01624,509.66078 223.18302,510.01867 223.18302,510.50462 C 223.18302,510.99057 223.85802,511.12914 224.68302,510.81256 C 225.50802,510.49597 226.18302,510.7351 226.18302,511.34394 C 226.18302,512.35626 224.8254,512.86815 222.93302,512.56935 C 222.02507,512.42599 222.00064,512.81207 222.7878,514.8634 C 223.12044,515.73022 223.79861,516.18851 224.29487,515.8818 C 224.79112,515.5751 225.47602,516.05091 225.81688,516.93915 C 226.27048,518.12124 227.18607,518.38953 229.23253,517.94006 C 231.76226,517.38443 231.97526,517.54613 231.4697,519.63845 C 231.02815,521.4658 231.17532,521.70459 232.17121,520.77669 C 233.11487,519.89747 233.16911,518.84978 232.38711,516.60655 C 231.34374,513.61352 231.34553,513.61162 234.26288,514.62861 C 235.86896,515.1885 237.18302,516.05256 237.18302,516.54876 C 237.18302,517.04495 237.52924,517.33843 237.9524,517.20093 C 239.30575,516.76118 244.18302,521.17918 244.18302,522.84485 C 244.18302,523.72819 244.70276,524.45093 245.33801,524.45093 C 246.02905,524.45093 245.82821,525.18551 244.83801,526.27967 C 243.92776,527.28548 243.21348,528.74798 243.2507,529.52967 C 243.28792,530.31136 243.81235,529.92574 244.4161,528.67273 C 246.62024,524.09825 249.10966,527.88348 247.20013,532.90592 C 246.15245,535.66153 246.11072,535.67391 244.40978,533.73367 C 243.46006,532.65033 242.12052,531.95603 241.43302,532.19078 C 239.55757,532.83116 239.92784,534.58313 241.86712,534.24477 C 243.10525,534.02874 243.78632,535.01018 244.43903,537.95093 C 245.38458,542.2111 244.14635,547.56591 241.52015,550.57375 C 240.02335,552.28807 239.97061,559.45093 241.45479,559.45093 C 241.92945,559.45093 242.02529,560.37252 241.66779,561.49892 C 241.31029,562.62531 241.55521,564.19447 242.21207,564.98593 C 242.86893,565.7774 243.13188,567.51856 242.79641,568.85518 C 242.45041,570.23375 242.65176,571.44051 243.2617,571.64382 C 243.85309,571.84095 244.49501,574.64264 244.68821,577.86979 C 245.06535,584.16979 243.53643,587.18426 240.54598,586.03672 C 239.43,585.60847 239.12848,585.86641 239.52801,586.90756 C 239.84022,587.72119 239.66533,588.65285 239.13935,588.97792 C 238.61337,589.303 238.18302,589.06208 238.18302,588.44256 C 238.18302,587.77123 237.37501,587.57261 236.18302,587.95093 C 234.00255,588.64298 233.86565,588.44157 234.82218,585.94887 C 235.21941,584.91372 235.71055,584.68645 236.1197,585.34847 C 236.82927,586.49659 242.49456,581.7606 242.93302,579.65276 C 243.26451,578.05916 241.48211,578.10091 240.87678,579.70093 C 240.61669,580.38843 240.42082,579.55328 240.44153,577.84504 C 240.46224,576.1368 240.08628,574.1118 239.60606,573.34504 C 239.12584,572.57828 238.83249,571.27593 238.95417,570.45093 C 239.23728,568.53138 237.51046,565.79016 236.59489,566.70572 C 236.21161,567.089 236.47627,568.09935 237.18302,568.95093 C 237.88977,569.80251 238.15443,570.81286 237.77115,571.19614 C 237.38787,571.57942 236.70499,571.2955 236.25365,570.56521 C 235.7058,569.67877 235.21462,569.59078 234.77599,570.30049 C 234.41463,570.88519 233.48743,571.12124 232.71554,570.82504 C 231.68613,570.43001 231.33574,571.11741 231.40076,573.40437 C 231.44952,575.11921 231.88878,576.76908 232.37689,577.07075 C 232.86501,577.37242 233.00277,578.4435 232.68302,579.45093 C 232.36327,580.45836 232.49494,581.52567 232.97561,581.82274 C 233.45628,582.11982 233.64919,583.72809 233.40429,585.3967 C 233.15939,587.0653 232.52874,588.1646 232.00284,587.83958 C 231.47695,587.51455 231.28823,586.61915 231.58346,585.84978 C 232.58578,583.23778 231.05379,581.45052 227.82603,581.46624 C 225.82662,581.47598 225.1488,581.77712 225.96314,582.29388 C 226.99077,582.94597 226.95243,583.66677 225.76878,585.94827 C 224.82246,587.77229 224.60746,589.37548 225.16854,590.42388 C 225.79383,591.59224 225.49708,592.39821 224.12647,593.25417 C 222.16019,594.48214 213.32352,594.97709 214.50768,593.79294 z M 219.16771,572.28426 C 219.17613,571.3676 219.74552,570.39062 220.43302,570.11321 C 221.41643,569.7164 221.41115,569.59199 220.40827,569.52988 C 219.17425,569.45345 217.16715,573.35279 217.19833,575.76603 C 217.22212,577.60643 219.15013,574.19779 219.16771,572.28426 z M 232.85836,568.79294 C 232.49647,568.43104 232.65795,567.5836 233.21722,566.90972 C 233.93641,566.04315 233.77643,565.50888 232.67069,565.08457 C 230.64035,564.30546 229.41886,567.35345 231.2873,568.53654 C 232.94001,569.58303 233.78662,569.72119 232.85836,568.79294 z M 235.18302,559.7215 C 235.18302,558.77863 234.60586,558.45843 233.60123,558.84394 C 232.73125,559.17779 231.34375,559.45093 230.5179,559.45093 C 229.69205,559.45093 229.2226,560.01343 229.47469,560.70093 C 229.72677,561.38843 230.43927,561.83843 231.05802,561.70093 C 231.67677,561.56343 232.18302,561.95603 232.18302,562.57337 C 232.18302,563.34888 232.64666,563.31103 233.68302,562.45093 C 234.50802,561.76624 235.18302,560.538 235.18302,559.7215 z M 228.5086,532.51821 C 227.61777,531.4778 226.33923,530.83749 225.66739,531.0953 C 224.99555,531.35311 224.21413,530.6779 223.9309,529.59483 C 223.50147,527.95267 223.8277,527.70027 225.89511,528.07517 C 227.61418,528.38689 228.23729,528.13017 227.92744,527.23783 C 227.68168,526.53003 226.51365,525.98666 225.33181,526.03033 C 224.14998,526.074 223.18302,525.6465 223.18302,525.08033 C 223.18302,524.41305 222.79866,524.43529 222.09038,525.14357 C 221.30019,525.93376 221.32584,526.84927 222.18302,528.45093 C 223.0402,530.05259 223.06585,530.9681 222.27566,531.75829 C 220.52137,533.51258 220.99618,535.31255 223.07016,534.77019 C 224.10809,534.49877 225.2604,534.76711 225.63085,535.36652 C 226.09944,536.12472 226.88618,536.14498 228.21634,535.4331 C 229.99049,534.4836 230.01155,534.27353 228.5086,532.51821 z M 231.95385,523.63843 C 232.17496,522.9751 231.4301,522.45093 230.26635,522.45093 C 228.18903,522.45093 227.56642,523.501 228.87052,524.8051 C 229.79699,525.73157 231.46674,525.09977 231.95385,523.63843 z M 222.68302,522.45093 C 222.3431,521.90093 222.76654,521.45093 223.624,521.45093 C 225.66421,521.45093 225.63463,519.56146 223.5821,518.77383 C 222.70159,518.43595 221.58348,518.78757 221.09741,519.55521 C 220.34474,520.74389 220.21137,520.74078 220.19833,519.53426 C 220.18991,518.7551 219.88578,518.41484 219.52248,518.77813 C 219.15919,519.14143 219.67893,520.34143 220.67747,521.4448 C 222.59789,523.56684 223.72087,524.13021 222.68302,522.45093 z M 311.56833,591.70093 C 312.2251,588.38219 317.50165,555.88202 319.64546,541.95093 C 320.49184,536.45093 322.50758,521.09297 324.12489,507.82212 C 325.7422,494.55127 327.72012,481.05127 328.52025,477.82212 C 329.32039,474.59297 330.2421,468.10937 330.56848,463.41413 C 331.10389,455.71201 330.9674,454.71079 329.17247,453.17392 C 327.06287,451.36763 326.53732,449.45093 328.15164,449.45093 C 328.68437,449.45093 328.8787,448.82145 328.58346,448.05208 C 328.28823,447.28271 328.53469,446.35162 329.13116,445.98298 C 329.72763,445.61435 329.95675,444.89383 329.64031,444.38183 C 329.32388,443.86984 329.45717,443.45093 329.9365,443.45093 C 330.41584,443.45093 330.80802,440.52593 330.80802,436.95093 C 330.80802,433.37593 330.37732,430.45093 329.85092,430.45093 C 329.27735,430.45093 329.13705,427.84618 329.50079,423.95093 C 329.91045,419.56393 329.75429,417.45093 329.02039,417.45093 C 328.34231,417.45093 328.16192,416.30645 328.54114,414.41033 C 328.87561,412.738 328.72564,410.6005 328.20787,409.66033 C 326.98636,407.44226 323.85468,379.79121 324.67471,378.46437 C 325.0192,377.90698 324.86171,377.45093 324.32474,377.45093 C 323.78777,377.45093 322.57358,379.58843 321.62654,382.20093 C 316.38768,396.65276 312.92654,403.95166 307.04487,412.95093 C 296.65295,428.85115 265.04756,461.57102 252.75529,469.15489 C 250.79054,470.36707 249.18302,470.99528 249.18302,470.55091 C 249.18302,469.19681 254.00178,464.45145 255.38527,464.44313 C 257.09062,464.43288 259.62951,459.09976 258.16193,458.61057 C 257.44181,458.37053 257.48107,457.79673 258.28378,456.82952 C 259.8759,454.91113 258.62818,453.83659 256.68302,455.45093 C 255.83144,456.15768 254.88461,456.48585 254.57895,456.18019 C 253.86729,455.46853 257.1244,450.45093 258.29803,450.45093 C 259.66814,450.45093 259.34221,445.68219 257.93302,445.11039 C 256.99181,444.72849 257.05356,444.33736 258.18302,443.52706 C 259.21966,442.78335 259.34292,442.21925 258.58205,441.70093 C 257.08156,440.67877 256.21991,435.54616 257.42389,434.80206 C 259.12514,433.75064 255.92104,432.55333 252.98012,433.14151 C 251.24335,433.48886 250.18302,433.27446 250.18302,432.57593 C 250.18302,431.95718 249.05802,431.45093 247.68302,431.45093 C 246.30802,431.45093 245.18302,431.82512 245.18302,432.28245 C 245.18302,432.73979 243.08091,433.59501 240.51166,434.18294 C 235.21095,435.39591 230.99897,434.17591 231.4267,431.55149 C 231.60675,430.44681 230.49275,429.72867 227.68302,429.13811 C 225.48302,428.67572 222.40568,427.655 220.84449,426.86986 C 219.28329,426.08472 217.56744,425.71335 217.03147,426.04459 C 216.49551,426.37583 215.29785,426.00009 214.37001,425.2096 C 213.44216,424.41911 209.73141,422.54403 206.12389,421.04274 C 198.75859,417.97764 187.33626,409.85994 184.67616,405.80012 C 183.7117,404.32817 181.51869,401.69427 179.80281,399.94703 C 178.08692,398.19978 175.07964,394.9554 173.11994,392.73729 C 171.16025,390.51918 168.57275,388.39201 167.36994,388.01026 C 166.16714,387.6285 165.18302,386.67148 165.18302,385.88354 C 165.18302,385.09561 164.79698,384.45093 164.32516,384.45093 C 163.85333,384.45093 161.85278,381.86343 159.87949,378.70093 C 157.90619,375.53843 154.26061,370.70093 151.77818,367.95093 C 144.39888,359.77624 144.18302,359.50056 144.18302,358.25093 C 144.18302,357.51197 143.85359,357.41592 143.32558,358.00093 C 142.854,358.52343 142.76102,361.79433 143.11898,365.2696 C 143.47693,368.74487 143.45761,371.78122 143.07605,372.01704 C 141.94077,372.71868 138.38796,365.02373 137.19853,359.28707 C 136.59002,356.35219 135.628,351.70093 135.06072,348.95093 C 134.49344,346.20093 133.61389,343.52343 133.10616,343.00093 C 132.59843,342.47843 132.18302,341.27546 132.18302,340.32766 C 132.18302,339.37985 131.07613,337.28891 129.72326,335.68112 C 128.37039,334.07332 126.54772,330.5513 125.67289,327.85439 C 124.79806,325.15749 123.70611,322.05093 123.24634,320.95093 C 121.77199,317.42357 117.31186,300.10102 116.69349,295.50054 C 115.81264,288.94728 114.52161,287.89509 111.6089,291.35665 C 108.7883,294.70874 104.49728,295.80504 100.14119,294.2865 C 96.567144,293.04058 93.183027,286.59014 93.183027,281.02356 C 93.183027,278.98622 92.244767,276.67143 90.683287,274.85647 C 89.308427,273.25842 87.924372,270.37593 87.607632,268.45093 C 87.290882,266.52593 86.622642,263.82593 86.122642,262.45093 C 85.622652,261.07593 83.864412,254.55093 82.215452,247.95093 C 80.566492,241.35093 78.084622,233.73716 76.700182,231.03145 C 74.754632,227.2291 74.183022,224.59875 74.183022,219.44823 C 74.183022,215.78318 73.683092,210.29517 73.072072,207.25265 C 72.123512,202.52942 72.214002,201.1879 73.691152,198.07504 C 75.731492,193.77534 78.275362,192.8821 84.623952,194.23612 C 89.154397,195.20237 89.183027,195.19144 89.183027,192.49637 C 89.183027,191.00471 88.849342,189.45058 88.441502,189.04274 C 88.033662,188.6349 87.618482,186.04631 87.518872,183.29031 C 87.419262,180.53431 86.679082,177.53049 85.874012,176.61517 C 84.943342,175.55701 84.432252,172.921 84.470652,169.37698 C 84.503862,166.3113 83.932242,160.98142 83.200402,157.5328 C 82.130912,152.49315 82.117712,151.10933 83.133162,150.48175 C 84.041982,149.92007 84.081362,149.50613 83.273472,149.00683 C 82.655782,148.62508 82.377352,147.94552 82.654732,147.4967 C 82.932122,147.04788 82.667162,145.26958 82.065942,143.54491 C 81.356822,141.51073 81.312282,139.97737 81.939152,139.18004 C 83.527232,137.16014 84.187672,130.63234 82.860552,130.07293 C 82.063912,129.73712 82.261202,129.1074 83.470482,128.12612 C 84.453582,127.32837 85.169642,126.2876 85.061722,125.8133 C 84.953802,125.339 85.227522,124.11801 85.669982,123.10001 C 86.200692,121.87896 85.999482,120.94312 85.078742,120.35001 C 84.067612,119.69867 83.999062,119.24427 84.829962,118.70093 C 86.295542,117.74257 86.720602,114.48394 85.690992,112.10001 C 85.241542,111.05935 85.313842,109.96494 85.856162,109.60001 C 86.386672,109.24301 87.592712,106.99067 88.536242,104.5948 C 89.852577,101.25231 89.982587,99.91433 89.094947,98.8448 C 88.191612,97.75635 88.273122,97.45093 89.466967,97.45093 C 90.453017,97.45093 90.826827,96.80483 90.519887,95.631066 C 90.258137,94.630146 90.750267,93.225046 91.613507,92.508627 C 92.476747,91.792207 93.183027,90.586137 93.183027,89.828487 C 93.183027,89.070827 93.659587,88.450927 94.242047,88.450927 C 94.824507,88.450927 95.034257,88.019237 94.708167,87.491607 C 94.382077,86.963977 94.522007,85.726477 95.019117,84.741606 C 95.516234,83.756734 96.993984,80.739379 98.302994,78.036373 C 102.06612,70.265838 103.41687,68.224365 107.72071,63.802766 C 109.94143,61.521277 112.61548,58.063095 113.66302,56.117918 C 114.84073,53.931059 117.02912,51.922203 119.39684,50.854511 C 121.7759,49.781702 123.44828,48.242223 123.81293,46.78936 C 124.13573,45.503223 125.02605,44.450929 125.79143,44.450929 C 126.5568,44.450929 127.18302,44.000929 127.18302,43.450929 C 127.18302,42.900929 127.85802,42.450929 128.68302,42.450929 C 129.50802,42.450929 130.18302,41.830523 130.18302,41.072249 C 130.18302,40.313976 131.64552,39.09311 133.43302,38.359216 C 136.96858,36.90762 137.80101,36.327674 142.27234,32.200929 C 143.91114,30.688429 145.61732,29.450929 146.06386,29.450929 C 147.83176,29.450929 153.02062,26.316527 153.55408,24.926356 C 153.86547,24.114871 154.81548,23.450929 155.6652,23.450929 C 156.51493,23.450929 157.99155,23.04935 158.94659,22.55853 C 159.90163,22.067711 161.80802,21.158178 163.18302,20.537346 C 164.55802,19.916513 168.38302,17.831748 171.68302,15.904533 C 179.51151,11.332662 184.6515,8.993451 190.18302,7.485189 C 192.65802,6.810338 197.51071,5.3691374 200.96679,4.2825185 C 205.29452,2.9218424 208.25171,2.5413987 210.46679,3.0603364 C 212.23571,3.4747544 216.38302,3.8950654 219.68302,3.9943614 C 225.21701,4.1608764 229.94455,4.5594035 243.91726,6.037282 C 246.79609,6.341773 249.41015,7.009408 249.72627,7.520915 C 250.0424,8.032422 251.4391,8.450928 252.83004,8.450928 C 254.22097,8.450928 258.94121,10.025929 263.31945,11.950929 C 267.69769,13.875929 272.17222,15.450929 273.26284,15.450929 C 274.35346,15.450929 275.47074,16.037143 275.74568,16.753627 C 276.02062,17.470111 277.694,18.104459 279.4643,18.163288 C 281.23459,18.222117 284.03302,18.983131 285.68302,19.854429 C 287.33302,20.725727 289.52603,21.44138 290.55638,21.444768 C 293.29165,21.453763 307.29677,30.161743 309.99018,33.528147 C 311.25912,35.114152 315.85508,39.16403 320.20343,42.527875 C 324.55177,45.89172 328.39716,49.550271 328.74874,50.657988 C 329.10031,51.765705 330.82481,54.309773 332.58096,56.311474 C 334.33711,58.313174 336.82057,61.975929 338.09976,64.450929 C 339.37896,66.925929 341.89232,70.090107 343.68501,71.482437 C 349.04512,75.64548 352.48337,80.401795 353.31341,84.801905 C 353.74388,87.083867 354.53379,91.283507 355.06877,94.134426 C 355.60376,96.98535 356.61259,100.36035 357.31063,101.63443 C 358.00867,102.9085 358.64852,106.42593 358.73253,109.45093 C 358.81654,112.47593 359.41591,116.25362 360.06447,117.8458 C 360.71304,119.43799 361.1789,122.58799 361.09973,124.8458 C 361.02056,127.10362 361.42102,131.42593 361.98965,134.45093 C 362.70172,138.23903 362.70146,141.2685 361.98881,144.18403 C 361.41233,146.54245 361.29,150.08536 361.71258,152.18403 C 362.68303,157.00368 362.68095,170.83228 361.70904,175.70093 C 360.85238,179.99222 361.71373,180.39452 365.45589,177.45093 C 366.85431,176.35093 369.2775,175.45782 370.84075,175.46624 C 376.22336,175.49524 377.7801,177.91436 380.25471,190.09523 C 383.57264,206.42718 383.57328,206.10909 380.19813,218.45093 C 378.46843,224.77593 376.66222,233.44538 376.18435,237.71639 C 375.33756,245.28453 373.39933,250.39973 367.75934,259.95093 C 366.35001,262.33759 365.60028,264.86151 365.9005,266.20856 C 366.43179,268.59237 364.09272,274.49192 361.95147,276.16874 C 358.34197,278.99534 352.70785,278.21421 348.53852,274.30911 C 345.2425,271.22199 345.53195,270.42811 340.28331,296.95093 C 337.85405,309.2267 334.67907,321.65995 333.00551,325.45093 C 330.52032,331.08044 326.70603,338.13058 324.61965,340.95093 C 321.84345,344.70376 319.72614,356.81604 320.52204,364.39166 C 321.26275,371.44199 322.99932,376.45093 324.70292,376.45093 C 326.66124,376.45093 332.6486,383.82575 338.38678,393.30574 C 351.60652,415.146 359.15193,420.06148 400.68302,433.88879 C 410.03302,437.00177 419.25802,440.38836 421.18302,441.41454 C 423.10802,442.44072 426.48302,443.5564 428.68302,443.89384 C 430.88302,444.23128 435.94552,445.25978 439.93302,446.1794 C 447.18302,447.85143 447.18302,447.85143 447.18302,521.15118 L 447.18302,594.45093 L 379.10356,594.45093 C 311.02411,594.45093 311.02411,594.45093 311.56833,591.70093 z M 228.18302,415.51842 C 231.66357,414.98874 234.14199,415.05123 234.93302,415.68861 C 235.84377,416.42246 236.18302,416.20361 236.18302,414.88225 C 236.18302,413.23484 236.29755,413.21697 237.43302,414.68719 C 238.12052,415.57737 239.58302,416.42764 240.68302,416.57668 C 243.30661,416.93213 250.89874,413.4178 254.68302,410.09619 C 256.33302,408.64793 258.89115,406.44777 260.36776,405.20695 C 261.84437,403.96614 263.08187,402.55253 263.11776,402.0656 C 263.15365,401.57867 264.22051,400.21876 265.48855,399.04358 C 267.86601,396.84023 269.97443,392.84378 268.17157,393.95801 C 266.26927,395.13369 267.20635,393.51023 269.83917,391.06895 C 271.30005,389.71434 272.64062,387.33363 272.81822,385.77848 C 273.48061,379.97795 274.3497,375.8885 275.36176,373.81002 C 276.19551,372.09773 275.9547,371.06112 274.15893,368.63221 C 272.92402,366.96191 272.17397,364.91689 272.49215,364.08772 C 272.81034,363.25856 272.53345,362.38232 271.87684,362.14054 C 270.965,361.80476 270.97827,361.38797 271.93302,360.37593 C 272.62052,359.64718 273.18302,358.24093 273.18302,357.25093 C 273.18302,356.25722 273.90978,355.45093 274.80546,355.45093 C 275.94103,355.45093 276.14417,355.82604 275.48238,356.70093 C 274.26322,358.31268 274.044,362.45093 275.17778,362.45093 C 275.65654,362.45093 276.33405,361.55045 276.68336,360.44987 C 277.03267,359.34928 278.2006,357.97671 279.27875,357.3997 C 280.35691,356.82268 280.96269,355.90345 280.62494,355.35695 C 280.28718,354.81045 280.52833,353.73978 281.16082,352.97768 C 282.71997,351.09902 283.3639,345.45093 282.01893,345.45093 C 281.41782,345.45093 281.15905,344.35663 281.42777,342.95093 C 281.69062,341.57593 281.51808,340.45093 281.04435,340.45093 C 280.57062,340.45093 280.18302,339.93119 280.18302,339.29594 C 280.18302,338.61529 280.95305,338.83782 282.05802,339.83781 C 283.08927,340.77107 283.93302,342.65957 283.93302,344.03446 C 283.93302,345.40935 284.20302,346.80426 284.53302,347.13426 C 285.70623,348.30748 289.03149,342.88494 289.65026,338.7895 C 289.99607,336.50072 290.86071,334.40485 291.57169,334.13202 C 293.52043,333.38422 295.5548,335.03969 294.87241,336.81798 C 294.54129,337.68088 294.6663,338.63158 295.15023,338.93066 C 296.25848,339.6156 300.82989,333.42989 304.37307,326.45093 C 305.07115,325.07593 305.93224,323.72593 306.28659,323.45093 C 308.17312,321.98686 313.21199,309.11756 312.62403,307.26507 C 312.22452,306.00632 312.48705,304.88106 313.29705,304.38046 C 314.02748,303.92903 314.29313,303.22771 313.88739,302.82197 C 313.48165,302.41623 312.61719,302.61676 311.96635,303.2676 C 310.10737,305.12658 309.58712,304.69474 309.4765,301.20093 C 309.41991,299.41343 309.21822,297.28661 309.02831,296.47467 C 308.82016,295.58472 309.54314,294.86646 310.8487,294.66617 C 312.76486,294.37221 312.97842,293.80058 312.7023,289.70486 C 312.43786,285.78246 312.7632,284.7824 314.83347,283.15392 C 316.17726,282.0969 317.09526,280.7188 316.87346,280.09149 C 316.65166,279.46418 316.86488,277.88464 317.34729,276.5814 C 317.8297,275.27817 318.27631,271.90801 318.33975,269.09217 C 318.41367,265.81099 318.9924,263.57958 319.95133,262.87839 C 321.26938,261.91461 321.24292,261.47198 319.7291,259.1616 C 317.88437,256.34619 318.34117,254.45093 320.86448,254.45093 C 321.98114,254.45093 322.14255,254.09373 321.42931,253.20093 C 320.83349,252.45511 320.71761,249.78804 321.14201,246.58853 C 321.78973,241.70536 321.63349,241.02231 319.39367,238.94543 C 316.94367,236.67366 316.94235,236.66209 319.05853,235.99044 C 321.32937,235.26971 321.81424,233.95908 320.18302,232.95093 C 319.63302,232.61101 319.18302,230.55945 319.18302,228.39191 C 319.18302,226.22437 318.73302,224.45093 318.18302,224.45093 C 317.63302,224.45093 317.18302,224.93843 317.18302,225.53426 C 317.18302,226.1301 316.65984,226.4432 316.02039,226.23005 C 314.6267,225.76549 313.96987,222.45093 315.2715,222.45093 C 317.06923,222.45093 316.1328,219.7772 313.43302,217.20164 C 309.90694,213.83779 306.26312,212.48957 303.49347,213.52399 C 302.28922,213.97376 298.12672,214.43453 294.24347,214.54792 C 290.36022,214.66131 287.18302,215.1851 287.18302,215.71191 C 287.18302,216.24489 285.74148,216.41238 283.93302,216.08952 C 282.14552,215.7704 278.99552,215.22194 276.93302,214.87071 C 274.87052,214.51948 273.18302,213.86435 273.18302,213.41485 C 273.18302,212.96535 272.39552,212.43513 271.43302,212.23658 C 270.47052,212.03804 273.50802,211.87371 278.18302,211.87142 C 287.46712,211.86687 294.18302,210.86185 294.18302,209.47705 C 294.18302,206.95841 291.19754,205.88217 284.93357,206.14272 C 279.22301,206.38025 278.34421,206.17533 277.90723,204.50431 C 277.56535,203.19695 276.347,202.49291 274.0454,202.27267 C 271.89577,202.06698 270.66509,201.40991 270.63331,200.45093 C 270.51687,196.93744 268.88198,191.45093 267.95146,191.45093 C 266.25318,191.45093 258.2584,196.87933 258.21953,198.05885 C 258.19945,198.6682 260.09552,199.60269 262.43302,200.13549 C 266.68302,201.10421 266.68302,201.10421 260.68302,201.85006 C 252.5933,202.85569 252.34135,202.9719 251.5677,206.05438 C 250.98932,208.35882 251.54861,209.3543 255.47768,213.01381 C 257.99937,215.36249 260.87343,217.73792 261.86447,218.29254 C 262.85551,218.84715 263.33537,219.63192 262.93082,220.03646 C 262.52627,220.44101 261.4042,220.05608 260.43732,219.18107 C 259.47044,218.30606 257.55518,217.11335 256.18119,216.53062 C 254.8072,215.94789 252.67052,214.73668 251.43302,213.83905 C 249.23164,212.24225 249.18302,212.27445 249.18302,215.32896 C 249.18302,217.43738 248.69604,218.45093 247.68302,218.45093 C 244.0831,218.45093 246.96302,225.21081 253.41205,231.89837 C 258.61024,237.28882 259.21116,238.98984 256.24936,239.92987 C 254.40709,240.51459 254.14343,242.95982 255.65835,245.41102 C 256.55913,246.86851 259.28775,245.41927 259.10987,243.57782 C 259.02343,242.68303 259.00453,241.10274 259.06787,240.06607 C 259.16889,238.41251 259.4293,238.4943 261.18998,240.73265 C 262.75001,242.71591 262.9898,243.82894 262.26675,245.73071 C 261.45034,247.87802 261.92821,248.7601 266.17304,252.9411 C 272.34588,259.02112 273.92165,264.20547 271.63971,270.92674 C 270.78736,273.43729 270.36247,275.93227 270.69552,276.47115 C 271.02856,277.01003 270.85105,277.45093 270.30105,277.45093 C 269.75105,277.45093 269.02294,277.00093 268.68302,276.45093 C 267.87918,275.15029 264.18302,275.15029 264.18302,276.45093 C 264.18302,277.83802 261.43662,277.71173 260.96706,276.30304 C 260.33126,274.39566 250.36176,277.24844 249.04138,279.71558 C 248.07329,281.52448 247.83409,281.57881 247.04513,280.16902 C 246.22824,278.70931 245.81779,278.70568 242.41589,280.12802 C 237.87324,282.02731 230.27515,283.9941 224.0743,284.87579 C 219.90784,285.46822 219.30914,285.29235 217.83541,283.04316 C 215.9501,280.16582 216.35827,279.76635 222.12602,278.84405 C 225.55852,278.29518 226.93255,277.39892 229.25352,274.19491 C 232.30243,269.98601 238.85592,264.52526 240.91397,264.47875 C 241.59099,264.46345 242.42826,265.57985 242.77456,266.95964 C 243.60371,270.26324 247.15196,271.08633 253.59199,269.46897 C 261.05251,267.59532 262.18302,266.79135 262.18302,263.35938 C 262.18302,259.99104 257.06927,254.45093 253.96016,254.45093 C 252.05407,254.45093 248.18302,257.80125 248.18302,259.45093 C 248.18302,261.98223 244.4682,260.12623 242.67886,256.70093 C 241.60142,254.63843 238.9792,250.84374 236.85171,248.26828 C 233.06667,243.68628 232.9787,243.39613 232.75877,234.76828 C 232.60748,228.83309 231.98634,224.90482 230.85852,222.75059 C 228.71965,218.66517 228.62629,211.87854 230.69803,211.08354 C 233.01594,210.19408 234.29803,205.88364 233.14597,202.85347 C 232.48249,201.1084 232.51001,198.95031 233.22982,196.27714 C 234.01433,193.36367 233.99551,191.92992 233.1595,190.92259 C 231.34929,188.74142 232.89715,185.83647 239.28247,179.4313 C 242.98055,175.72171 245.46279,172.30208 245.84515,170.39028 C 246.71488,166.04162 249.6682,164.54454 258.75384,163.84668 C 268.24643,163.11757 269.13882,162.98499 271.56549,161.94334 C 272.67445,161.46732 274.19627,161.60262 275.26913,162.27263 C 276.42826,162.99652 277.31037,163.05389 277.69568,162.43045 C 278.02863,161.89171 277.712,161.44404 276.99204,161.43562 C 275.94409,161.42336 275.93662,161.25935 276.95458,160.61328 C 277.65394,160.16941 280.4898,160.26995 283.25651,160.83671 C 286.99576,161.60268 288.78339,161.55709 290.22138,160.65905 C 291.28536,159.99458 293.23884,159.45093 294.56246,159.45093 C 298.41933,159.45093 298.50822,156.80075 294.74756,153.93236 C 292.52956,152.24061 291.54882,150.76812 291.85647,149.59165 C 292.11255,148.61241 291.66224,147.26361 290.85578,146.59431 C 289.99869,145.88299 289.61978,144.49675 289.94378,143.25779 C 290.30946,141.85943 290.12127,141.37106 289.39072,141.82257 C 288.12903,142.60233 285.84381,138.95521 286.46015,137.14549 C 287.15068,135.11795 285.09965,129.06821 282.9227,126.71141 C 280.88231,124.50245 280.88021,124.44302 282.76855,122.35642 C 283.82151,121.19291 284.57052,120.0632 284.43302,119.84594 C 284.29552,119.62869 284.23484,119.11343 284.29817,118.70093 C 284.57817,116.8773 283.90324,113.84772 282.96094,112.69845 C 282.39613,112.00958 282.17897,110.20958 282.47836,108.69845 C 283.13093,105.40473 280.00955,100.91978 277.68536,101.81166 C 275.5965,102.61323 275.79604,100.77571 277.93302,99.53103 C 278.89552,98.97042 279.12443,98.49806 278.44172,98.48134 C 276.61941,98.4367 271.08945,92.384907 269.96154,89.200927 C 269.42575,87.688427 268.35639,86.450927 267.58519,86.450927 C 266.814,86.450927 266.18302,85.749367 266.18302,84.891912 C 266.18302,84.034453 265.73302,83.61101 265.18302,83.950929 C 264.63302,84.290848 264.18302,83.840848 264.18302,82.950929 C 264.18302,81.937791 264.65033,81.60303 265.43302,82.055477 C 266.12052,82.452897 265.41442,81.572119 263.86391,80.098191 C 262.31339,78.624264 260.71008,77.625189 260.30098,77.878024 C 259.89189,78.130859 257.37961,76.309775 254.71815,73.831171 C 252.05668,71.352566 249.61,69.742386 249.28107,70.252992 C 248.28744,71.795441 244.18135,72.690092 237.25368,72.873568 C 233.63982,72.969279 229.69783,73.589557 228.49371,74.251963 C 227.22524,74.949769 226.06595,75.070517 225.73748,74.539044 C 225.42567,74.034532 225.73586,73.419922 226.42679,73.173244 C 229.04688,72.237806 226.40908,71.525707 223.45849,72.371925 C 221.1945,73.02123 219.6054,72.843163 217.52472,71.70701 C 215.61421,70.663779 212.49978,70.224414 208.02048,70.366208 C 203.96572,70.494564 200.55065,70.072958 199.29544,69.289063 C 197.66792,68.272664 196.97459,68.259357 196.00798,69.22597 C 194.54,70.693948 189.18302,70.870521 189.18302,69.450929 C 189.18302,68.148902 184.48772,68.148902 183.68302,69.450929 C 183.3431,70.000929 181.55289,70.450929 179.70477,70.450929 C 177.85665,70.450929 173.72071,71.106978 170.51379,71.908816 C 167.30687,72.710654 161.81759,73.644578 158.31541,73.984202 C 151.54994,74.640282 148.73816,76.561284 145.55667,82.700929 C 144.77292,84.213429 143.54937,85.450927 142.83768,85.450927 C 142.12598,85.450927 140.46047,86.688427 139.13654,88.200927 C 136.98241,90.661867 136.69032,90.753297 136.35781,89.070757 C 136.15344,88.036657 136.59301,86.806047 137.33463,86.336067 C 138.31306,85.716007 138.06568,85.477357 136.43302,85.466237 C 135.19552,85.457817 134.18302,85.970957 134.18302,86.606537 C 134.18302,87.242127 133.0197,89.287337 131.59786,91.151467 C 129.54181,93.847096 129.25513,94.832886 130.19717,95.967976 C 131.12836,97.09 131.01993,97.75687 129.69007,99.08674 C 128.54175,100.23506 128.18067,101.6892 128.56576,103.61462 C 128.87848,105.17821 128.69552,106.45093 128.15802,106.45093 C 127.62177,106.45093 127.18302,106.91915 127.18302,107.49142 C 127.18302,108.06369 126.26446,109.77433 125.14178,111.29284 C 123.60235,113.37503 123.31562,114.63515 123.9754,116.41872 C 124.64245,118.22193 124.39311,119.24084 122.9257,120.70825 C 121.02628,122.60767 121.02845,122.65827 123.09208,124.58083 C 125.35015,126.68455 125.79834,128.95261 124.1565,129.96732 C 123.59191,130.31625 123.21408,131.13031 123.31687,131.77634 C 123.6038,133.57969 121.35763,138.45093 120.23916,138.45093 C 119.6928,138.45093 119.47715,139.05383 119.75991,139.79072 C 120.04268,140.5276 119.57856,141.7077 118.72853,142.41316 C 117.8785,143.11862 117.18302,144.28795 117.18302,145.01166 C 117.18302,145.73537 115.83302,147.80555 114.18302,149.61207 C 112.53302,151.41859 111.18302,153.48549 111.18302,154.20518 C 111.18302,154.92486 110.50802,155.77272 109.68302,156.0893 C 108.85802,156.40589 108.18302,157.05264 108.18302,157.52653 C 108.18302,158.00043 108.85802,158.12914 109.68302,157.81256 C 110.50802,157.49597 111.18302,157.7351 111.18302,158.34394 C 111.18302,158.95279 110.51958,159.45093 109.7087,159.45093 C 108.01648,159.45093 105.18302,164.39158 105.18302,167.34225 C 105.18302,168.43711 104.73302,169.61101 104.18302,169.95093 C 103.63302,170.29085 103.18302,171.40491 103.18302,172.42661 C 103.18302,173.44832 102.69058,174.44841 102.08872,174.64903 C 100.70043,175.1118 99.148824,183.31176 100.31336,184.03148 C 100.79167,184.3271 101.18302,186.60922 101.18302,189.10286 C 101.18302,191.59651 102.02955,197.98245 103.0642,203.29385 C 106.12275,218.99498 107.52696,227.80288 107.35861,230.23046 C 107.1837,232.75277 110.93938,241.45093 112.20338,241.45093 C 112.64343,241.45093 113.31468,245.38843 113.69503,250.20093 C 114.07538,255.01343 114.95869,259.86048 115.65794,260.97214 C 116.3572,262.08381 117.16551,264.78381 117.4542,266.97214 C 118.60911,275.72656 119.30464,278.97255 120.2222,279.89011 C 120.75065,280.41856 121.18302,281.56092 121.18302,282.42869 C 121.18302,284.32387 124.61467,287.45093 126.69445,287.45093 C 127.51316,287.45093 128.18302,288.12593 128.18302,288.95093 C 128.18302,289.77593 128.63302,290.45093 129.18302,290.45093 C 129.73302,290.45093 130.18302,290.93717 130.18302,291.53146 C 130.18302,292.76913 136.61574,302.91329 139.38712,306.046 C 140.40791,307.19988 141.51483,310.45689 141.85108,313.296 C 142.18687,316.13121 142.84892,318.45093 143.32231,318.45093 C 143.7957,318.45093 144.18302,319.37255 144.18302,320.49897 C 144.18302,321.62539 145.7184,324.94719 147.59497,327.88074 C 149.47154,330.8143 152.41364,336.41956 154.13296,340.33688 C 158.68711,350.71309 164.56573,362.71607 167.10851,366.83037 C 169.19326,370.20357 169.18684,373.18936 167.09761,371.89814 C 166.57664,371.57617 166.37661,370.94672 166.65308,370.49937 C 166.92956,370.05202 166.2619,368.54963 165.16939,367.16074 C 164.07689,365.77184 163.17732,364.25645 163.17035,363.7932 C 163.15604,362.84131 159.48762,355.52784 153.46832,344.45093 C 145.49238,329.77336 142.18302,323.13114 142.18302,321.80023 C 142.18302,321.05811 141.84552,320.44667 141.43302,320.44146 C 141.02052,320.43625 139.78302,318.34181 138.68302,315.78716 C 136.88998,311.62297 132.5691,302.89268 128.46343,295.1386 C 127.64444,293.59182 126.80743,292.49318 126.60342,292.69719 C 125.99353,293.30708 128.10741,305.64557 129.55941,309.95093 C 130.30136,312.15093 131.48046,316.42593 132.17963,319.45093 C 133.75684,326.27487 135.48271,329.73536 142.93983,341.02598 C 149.48247,350.93203 153.82196,357.90387 156.37674,362.61379 C 157.30828,364.33116 158.88414,366.68458 159.87865,367.84361 C 160.87315,369.00263 162.54182,371.86343 163.5868,374.20093 C 165.57127,378.63995 166.89778,379.68425 166.76242,376.70093 C 166.71875,375.73843 167.13302,374.95093 167.68302,374.95093 C 168.23302,374.95093 168.57915,375.26255 168.45219,375.64343 C 168.32523,376.0243 169.33773,377.21406 170.70219,378.28735 C 172.06665,379.36063 173.18579,381.07401 173.18918,382.09485 C 173.19257,383.11569 173.79722,385.07593 174.53285,386.45093 C 182.46229,401.27227 184.81333,404.34539 188.27803,404.41766 C 189.15529,404.43596 190.66007,405.32058 191.62199,406.38349 C 192.58391,407.4464 193.99986,408.07471 194.76855,407.77974 C 195.53723,407.48476 196.45302,407.99097 196.80363,408.90465 C 197.15462,409.81931 198.07823,410.32138 198.85883,410.02184 C 199.66815,409.71127 201.81512,411.01636 203.86174,413.06298 C 206.74183,415.94308 207.98508,416.54052 210.18343,416.10085 C 211.68852,415.79983 214.21665,415.952 215.80149,416.43901 C 217.38633,416.92601 219.58302,417.10644 220.68302,416.83995 C 221.78302,416.57347 225.15802,415.97878 228.18302,415.51842 z M 227.18302,364.5931 C 227.18302,363.61965 230.24353,361.45093 231.61728,361.45093 C 231.92844,361.45093 232.18302,362.12593 232.18302,362.95093 C 232.18302,363.77593 231.76982,364.45093 231.26481,364.45093 C 230.75979,364.45093 229.63479,364.72407 228.76481,365.05792 C 227.89482,365.39176 227.18302,365.1826 227.18302,364.5931 z M 219.91859,363.85316 C 218.81538,362.74996 220.37797,360.45093 222.23099,360.45093 C 224.92322,360.45093 225.53965,362.1897 223.27677,363.40076 C 220.9988,364.61989 220.72253,364.65711 219.91859,363.85316 z M 207.43302,356.2901 C 205.09552,355.15647 203.18302,353.63258 203.18302,352.90367 C 203.18302,351.14001 213.12593,355.42282 213.15945,357.20093 C 213.19055,358.8504 212.47886,358.7372 207.43302,356.2901 z M 240.6788,353.44411 C 240.33656,352.89035 241.0175,351.08775 242.192,349.43832 C 244.34781,346.41076 244.55815,342.95093 242.5864,342.95093 C 241.99832,342.95093 240.42949,341.69735 239.1001,340.16519 C 237.06015,337.8141 236.17847,337.48204 233.44925,338.03695 C 231.67068,338.39857 230.43059,339.0425 230.69351,339.4679 C 230.95642,339.8933 230.49912,340.49939 229.67728,340.81476 C 228.85544,341.13013 228.18302,340.95228 228.18302,340.41955 C 228.18302,339.88681 227.70646,339.45093 227.124,339.45093 C 226.54154,339.45093 226.3431,339.90093 226.68302,340.45093 C 227.02294,341.00093 226.64764,341.45093 225.84903,341.45093 C 225.05041,341.45093 224.11853,340.72525 223.77818,339.83831 C 223.34272,338.70354 222.79246,338.52187 221.92119,339.22524 C 221.2402,339.775 218.78377,340.538 216.46246,340.92079 C 214.14115,341.30358 211.1351,342.48738 209.78235,343.55146 C 208.23815,344.76612 207.085,345.10135 206.68382,344.45222 C 206.33237,343.88357 205.58314,343.70364 205.01885,344.05239 C 204.45457,344.40114 202.70389,343.73348 201.12844,342.5687 C 198.7188,340.78718 194.18302,339.63034 194.18302,340.79729 C 194.18302,342.03366 197.49938,347.45093 198.25626,347.45093 C 198.76598,347.45093 199.18302,347.90093 199.18302,348.45093 C 199.18302,349.91513 197.54631,349.67136 195.82588,347.95093 C 195.00088,347.12593 193.89355,346.45093 193.36515,346.45093 C 192.83676,346.45093 188.51867,342.62593 183.76942,337.95093 C 178.73444,332.99468 174.30039,329.45093 173.13396,329.45093 C 171.92707,329.45093 170.7612,328.47166 170.19495,326.98231 C 169.67874,325.62457 168.33988,323.94133 167.2197,323.24177 C 165.96007,322.45511 165.18302,320.90361 165.18302,319.1752 C 165.18302,317.63815 164.48357,315.31307 163.62868,314.00835 C 162.48436,312.26189 162.38196,311.44601 163.24049,310.91541 C 164.47165,310.15451 166.14189,312.05818 166.16771,314.25173 C 166.18991,316.13767 173.64684,315.24614 176.05137,313.07007 C 177.19166,312.03812 180.10413,311.16952 183.19583,310.93934 C 186.0665,310.72561 189.15049,309.90379 190.04913,309.11307 C 190.94777,308.32234 195.66546,306.70575 200.53289,305.52065 C 209.38277,303.36591 209.38277,303.36591 212.78289,305.95931 C 214.65296,307.38568 216.18302,308.88541 216.18302,309.29204 C 216.18302,310.45793 225.57337,309.77987 225.97159,308.58523 C 226.16793,307.99619 227.84141,307.23044 229.69043,306.88356 C 231.53945,306.53668 233.82644,305.39744 234.77264,304.3519 C 235.71883,303.30637 237.09825,302.45093 237.83801,302.45093 C 238.57776,302.45093 239.18653,302.11343 239.19082,301.70093 C 239.19511,301.28843 240.40691,300.38981 241.8837,299.70399 C 244.02824,298.70808 244.72817,298.70808 245.36058,299.70399 C 245.79608,300.38981 246.15929,300.55833 246.16771,300.07849 C 246.17613,299.59864 246.86889,299.77527 247.70719,300.47099 C 248.54548,301.16671 249.47935,301.48793 249.78246,301.18482 C 250.08557,300.88172 251.71322,301.0294 253.39947,301.51301 C 255.08572,301.99662 257.12289,302.02433 257.92652,301.5746 C 258.73015,301.12486 261.1183,301.07337 263.23352,301.46016 C 265.92443,301.95223 267.22262,301.79013 267.55638,300.92036 C 267.86924,300.10506 267.3709,299.85054 266.1082,300.18075 C 264.79425,300.52435 264.18302,300.17092 264.18302,299.06756 C 264.18302,298.17841 264.63302,297.45093 265.18302,297.45093 C 266.80107,297.45093 266.29317,295.13913 264.08453,292.45093 C 262.03051,289.95093 262.03051,289.95093 262.45467,292.6307 C 262.80041,294.81508 262.42298,295.42487 260.41292,295.92936 C 257.41157,296.68266 257.37026,296.64493 256.52478,292.37801 C 255.90727,289.26162 255.99698,289.07535 257.51437,290.32337 C 258.65008,291.25748 259.18302,291.32704 259.18302,290.54115 C 259.18302,289.90608 258.19372,289.02051 256.98456,288.57322 C 254.85069,287.78385 254.86435,287.745 257.44968,287.25079 C 258.94293,286.96533 260.27548,287.22698 260.48248,287.84627 C 260.69806,288.49126 263.38779,288.95093 266.94629,288.95093 C 272.53369,288.95093 273.17632,288.72208 274.66848,286.20093 C 276.27405,283.48818 278.12984,282.73635 279.60522,284.20093 C 280.02076,284.61343 281.54352,284.95093 282.98914,284.95093 C 285.0164,284.95093 285.85067,285.63706 286.63687,287.95093 C 287.19751,289.60093 288.27552,291.33921 289.03245,291.81377 C 292.06103,293.71254 294.10624,296.48743 293.54846,297.94098 C 293.22441,298.78546 293.46738,300.08863 294.0884,300.83692 C 295.88956,303.00719 294.31696,305.52839 291.35394,305.22081 C 289.47614,305.02588 288.64667,305.47729 288.36726,306.84619 C 288.03596,308.46933 288.41318,308.6549 290.9945,308.13863 C 294.96375,307.34478 297.19376,309.6447 294.95152,312.21969 C 294.12238,313.17187 293.62868,314.45613 293.8544,315.07361 C 294.08012,315.69108 293.3464,316.43645 292.22391,316.72999 C 291.10142,317.02352 290.18302,316.85582 290.18302,316.35731 C 290.18302,315.8588 289.60803,315.45093 288.90526,315.45093 C 287.47553,315.45093 284.18302,318.939 284.18302,320.45366 C 284.18302,320.99259 282.90787,322.67495 281.34935,324.19223 C 277.9723,327.47994 275.0843,333.03009 275.79155,334.87317 C 276.07008,335.59899 275.5971,336.46179 274.74049,336.7905 C 273.88388,337.11921 273.18302,337.86728 273.18302,338.45288 C 273.18302,339.89801 266.54131,346.45093 265.0766,346.45093 C 264.4314,346.45093 263.30571,347.23843 262.57507,348.20093 C 261.48926,349.6313 261.22798,349.67696 261.14454,348.45093 C 261.07217,347.38768 260.82788,347.49711 260.3055,348.82679 C 259.76139,350.21177 258.28281,350.81314 254.65506,351.12491 C 251.95264,351.35716 249.3909,352.08802 248.96229,352.74905 C 248.36714,353.66696 247.97963,353.63578 247.32218,352.61708 C 246.62806,351.54155 246.34364,351.58997 245.85357,352.86708 C 245.1791,354.62471 241.65156,355.01806 240.6788,353.44411 z M 235.39253,333.44481 C 236.88276,332.34818 238.47013,331.45093 238.92002,331.45093 C 239.36991,331.45093 240.76345,330.73268 242.01677,329.85482 C 243.27009,328.97697 246.6148,328.13378 249.44947,327.98107 C 253.37118,327.7698 254.93466,327.20454 255.98888,325.6168 C 257.28481,323.66503 257.52987,323.63209 259.78101,325.1071 C 262.13082,326.64675 262.22432,326.59633 263.73824,322.97302 C 265.8402,317.94232 265.32096,311.08932 262.80158,310.61092 C 261.76679,310.41443 259.8452,310.82895 258.53138,311.53209 C 256.69617,312.51426 255.86921,312.53712 254.96281,311.63072 C 253.50121,310.16912 247.95196,310.08199 246.53554,311.49841 C 245.95943,312.07452 242.8439,312.76439 239.61215,313.03144 C 236.38041,313.29849 232.33087,314.34618 230.61318,315.35964 C 228.29424,316.72784 227.02374,316.94129 225.67881,316.18864 C 223.35703,314.8893 204.48811,314.18081 202.4583,315.31675 C 201.55966,315.81966 199.75997,315.74006 198.13152,315.12539 C 195.98643,314.31571 194.95006,314.39938 193.63817,315.48815 C 192.70032,316.2665 190.57822,316.76123 188.92239,316.58754 C 186.0308,316.28423 184.23221,317.60636 184.19833,320.06014 C 184.18991,320.67021 185.98396,323.21533 188.18512,325.71597 C 191.12788,329.05912 192.71605,330.1243 194.18512,329.74013 C 195.55083,329.38299 196.18302,329.71054 196.18302,330.77528 C 196.18302,333.50112 198.24997,333.73666 200.83764,331.3057 C 203.28641,329.00522 203.37661,328.99525 204.74967,330.87299 C 205.99184,332.57174 206.58769,332.6623 209.87823,331.6524 C 212.73687,330.77506 213.77443,330.78982 214.34682,331.71597 C 214.77377,332.40678 214.41948,333.29873 213.51769,333.80339 C 210.39012,335.55367 214.52681,336.41635 223.68302,335.92332 C 230.56464,335.55276 233.32077,334.96938 235.39253,333.44481 z M 219.73852,333.54074 C 219.30738,332.84314 220.18955,332.45093 222.18974,332.45093 C 223.90836,332.45093 226.18492,331.9851 227.24876,331.41575 C 229.09004,330.43033 230.18171,331.71567 228.4254,332.80113 C 226.44265,334.02654 220.35889,334.54451 219.73852,333.54074 z M 270.99126,316.03822 C 271.25541,311.96226 271.04987,311.32992 269.55444,311.61792 C 267.251,312.06152 265.63239,318.08254 267.28218,320.07041 C 269.30493,322.50768 270.66803,321.02583 270.99126,316.03822 z M 159.58717,328.70093 C 158.76558,326.63843 157.6739,324.05093 157.16122,322.95093 C 156.64854,321.85093 155.12517,317.84623 153.77595,314.05159 C 151.32284,307.15226 151.32284,307.15226 153.3792,301.55159 C 154.5102,298.47123 156.61624,294.42488 158.05929,292.55972 C 162.5296,286.78176 166.05216,281.60466 167.75885,278.30429 C 168.65909,276.56342 170.24781,274.22439 171.28933,273.10644 C 173.18302,271.07381 173.18302,271.07381 173.18302,273.60978 C 173.18302,275.00456 170.6225,280.15191 167.49298,285.04834 C 159.17278,298.06604 156.18302,304.24151 156.18302,308.40948 C 156.18302,311.6885 158.08313,319.85309 161.02173,329.20093 C 162.42168,333.65425 161.42143,333.30562 159.58717,328.70093 z M 286.40939,331.61199 C 285.4365,330.99456 285.61361,330.37123 287.15939,328.97232 C 289.14262,327.17752 289.18302,327.19396 289.18302,329.79594 C 289.18302,332.56233 288.55486,332.97362 286.40939,331.61199 z M 294.90614,323.25803 C 295.2173,321.98913 295.88179,320.42482 296.38279,319.78179 C 296.88379,319.13876 297.33269,315.98876 297.38035,312.78179 C 297.70116,291.1968 297.78166,292.10352 295.21919,288.43935 C 292.77745,284.94782 285.18882,275.39234 284.11008,274.45093 C 283.79496,274.17593 283.24259,273.15302 282.88258,272.17779 C 281.43106,268.24572 287.11429,273.25526 295.07604,282.92586 C 300.18706,289.13386 302.61127,296.83415 301.85257,304.45093 C 301.2048,310.95401 296.9386,324.69907 295.40976,325.20868 C 294.75626,325.42652 294.5604,324.66793 294.90614,323.25803 z M 251.17058,294.93769 C 249.34883,292.99852 249.08059,292.15336 249.99626,291.23769 C 251.31364,289.92031 253.16303,291.1409 253.53044,293.57023 C 253.64529,294.32962 254.09066,295.51343 254.52016,296.20093 C 255.89329,298.39894 253.61509,297.53975 251.17058,294.93769 z M 188.0438,278.53701 C 186.74537,277.48435 185.99944,276.30543 186.38617,275.91719 C 186.77291,275.52894 191.17792,274.77464 196.17509,274.24096 C 203.03402,273.50845 205.61894,273.56782 206.72193,274.48322 C 209.40542,276.71032 208.23,277.43075 202.68302,276.95874 C 197.16029,276.48879 196.15615,277.02406 198.38302,279.25093 C 200.55757,281.42548 190.77333,280.74988 188.0438,278.53701 z M 191.93302,256.73468 C 188.16345,256.16363 188.48605,254.76898 192.80514,252.96435 C 197.23106,251.11508 199.18302,251.04296 199.18302,252.72869 C 199.18302,253.83801 195.57374,257.71068 194.92159,257.3011 C 194.79038,257.21869 193.44552,256.9638 191.93302,256.73468 z M 126.80687,218.91308 C 126.4823,218.06726 126.77165,217.18061 127.44988,216.94275 C 128.12811,216.70488 130.03302,215.98377 131.68302,215.34028 C 134.5747,214.21252 134.60053,214.14827 132.39827,213.56061 C 130.25295,212.98814 130.45062,212.62864 135.63705,207.6702 C 141.87169,201.70963 147.50887,198.93308 157.68302,196.81162 C 161.53302,196.00883 168.17394,194.40273 172.44062,193.2425 C 179.59121,191.29806 180.75179,191.23744 187.27288,192.46788 C 192.74054,193.49956 194.51562,193.5308 195.08754,192.60541 C 195.62321,191.73868 196.49794,191.99458 198.25529,193.53213 C 199.59054,194.70038 201.57293,196.28663 202.6606,197.05713 C 204.16763,198.12471 204.77046,200.03437 205.19409,205.08283 C 205.74999,211.70762 205.74999,211.70762 201.7165,213.55868 C 199.49809,214.57676 196.7134,216.12042 195.52831,216.98903 C 194.09838,218.03711 193.15352,218.21222 192.7193,217.50963 C 192.35943,216.92734 192.75797,216.45093 193.60495,216.45093 C 195.2363,216.45093 196.91406,211.8469 195.71729,210.65436 C 194.83453,209.77473 169.18524,209.71495 169.18396,210.59252 C 169.18344,210.9454 167.96899,211.53882 166.48517,211.91123 C 164.61509,212.38059 164.18058,212.83139 165.06902,213.38047 C 166.07993,214.00525 166.04183,214.29113 164.88872,214.73362 C 164.08463,215.04218 162.90316,214.77107 162.26323,214.13114 C 161.37857,213.24648 160.86568,213.32512 160.12308,214.45929 C 159.25904,215.77894 159.04283,215.77653 158.24796,214.43845 C 157.60901,213.36285 155.733,212.9429 151.7532,212.98458 C 147.15672,213.03271 145.88114,213.43691 144.61327,215.24706 C 143.68833,216.56759 141.9901,217.46513 140.37632,217.48637 C 138.895,217.50585 136.55802,218.16491 135.18302,218.95093 C 131.85731,220.85208 127.54345,220.83258 126.80687,218.91308 z M 161.18302,210.77193 C 161.18302,210.39848 160.64262,208.59848 159.98213,206.77193 C 158.59209,202.92784 156.1756,202.45835 153.18302,205.45093 C 150.72481,207.90914 150.66679,209.05088 152.93302,210.37083 C 154.89794,211.51529 161.18302,211.82086 161.18302,210.77193 z M 185.68857,207.04736 C 189.54504,206.63619 189.53527,205.9674 185.62259,202.53202 C 181.31151,198.74684 179.97092,198.94414 179.03895,203.50099 C 178.19407,207.63199 178.74558,208.72454 181.27112,207.92297 C 182.32701,207.58784 184.31486,207.19382 185.68857,207.04736 z M 195.18302,203.37846 C 195.18302,202.42054 188.98737,196.45093 187.99318,196.45093 C 186.47256,196.45093 187.18115,197.85375 190.43302,201.28111 C 192.56735,203.53062 193.25178,204.8636 192.42679,205.16413 C 191.73586,205.41582 191.46705,206.10149 191.82943,206.68783 C 192.45587,207.70142 195.18302,205.01022 195.18302,203.37846 z M 201.02067,203.01367 C 201.45286,200.82294 198.42643,197.45093 196.02803,197.45093 C 195.01328,197.45093 194.18302,198.12593 194.18302,198.95093 C 194.18302,199.77593 194.66522,200.45093 195.25459,200.45093 C 195.84395,200.45093 196.24414,201.46343 196.14389,202.70093 C 195.85896,206.21852 196.03689,206.44043 198.43302,205.55585 C 199.67052,205.099 200.83496,203.95502 201.02067,203.01367 z M 147.91015,203.45093 C 149.54623,202.16399 149.92512,201.45093 148.97287,201.45093 C 148.15894,201.45093 146.67851,202.35093 145.68302,203.45093 C 143.35157,206.02716 144.63501,206.02716 147.91015,203.45093 z M 177.74709,218.44241 C 179.50842,216.68108 186.18302,213.94046 186.18302,214.97858 C 186.18302,215.56181 177.64183,220.45093 176.62294,220.45093 C 176.13654,220.45093 176.64241,219.5471 177.74709,218.44241 z M 120.85809,200.48647 C 119.08965,198.69801 119.15156,198.51102 122.85809,194.44528 C 138.00439,177.83113 143.89364,173.13595 146.68302,175.45093 C 147.55714,176.17639 148.81084,176.16273 150.80098,175.40608 C 152.37465,174.80777 155.01689,174.56583 156.67261,174.86843 C 158.32834,175.17103 161.48302,174.77064 163.68302,173.97867 C 165.88302,173.18669 168.52562,172.51896 169.55546,172.49482 C 171.1959,172.45637 171.25785,172.66777 170.05546,174.20093 C 168.86214,175.72253 168.87879,175.80286 170.18302,174.8164 C 171.94528,173.48351 177.24838,172.21538 182.18302,171.94682 C 187.91018,171.63514 199.89869,177.23806 199.37215,179.98028 C 199.20117,180.87075 199.61251,182.26351 200.28624,183.07531 C 202.51658,185.7627 199.32457,187.34979 190.17037,188.10496 C 185.50233,188.49004 181.00802,188.76679 180.18302,188.71995 C 179.35802,188.67311 174.78335,188.30425 170.01708,187.90026 C 163.3657,187.33649 160.22738,187.52247 156.51708,188.70031 C 153.85835,189.54432 149.54552,190.53607 146.93302,190.90418 C 143.77751,191.34881 142.18302,192.05643 142.18302,193.0122 C 142.18302,193.8035 141.54255,194.45093 140.75975,194.45093 C 139.97694,194.45093 137.99948,195.57593 136.36539,196.95093 C 134.73129,198.32593 132.33427,199.46524 131.03866,199.48273 C 129.74306,199.50023 127.80951,200.17523 126.74189,200.98273 C 124.25734,202.86195 123.11141,202.7653 120.85809,200.48647 z M 278.18302,368.45093 C 278.18302,366.50174 277.12235,365.84493 275.91859,367.0487 C 275.11747,367.84981 276.16597,370.45093 277.29001,370.45093 C 277.78116,370.45093 278.18302,369.55093 278.18302,368.45093 z M 108.38358,288.70093 C 111.58491,285.28171 112.50415,282.46207 112.70326,275.45093 C 112.95265,266.66938 109.16144,243.32215 107.12047,241.07068 C 105.72878,239.53546 104.78771,247.58829 106.11116,249.70747 C 107.52481,251.97109 106.93231,252.95244 104.67496,252.08621 C 103.47413,251.62541 103.13888,250.29921 103.31658,246.71267 C 103.59147,241.16434 102.40243,233.70457 101.11649,232.90981 C 100.20945,232.34923 101.65408,229.14784 103.93302,226.66817 C 105.54851,224.91039 105.65,225.33095 102.19696,219.47458 C 100.55463,216.68917 98.929064,213.28725 98.584594,211.91475 C 97.467754,207.46491 90.449767,203.59229 88.683022,206.45093 C 88.343102,207.00093 87.191552,207.45093 86.124012,207.45093 C 84.807432,207.45093 84.183022,208.13928 84.183022,209.59069 C 84.183022,210.76755 83.395522,212.32824 82.433022,213.05888 C 81.307462,213.91331 81.141602,214.39867 81.968212,214.41913 C 82.909802,214.44243 82.987432,214.94789 82.258562,216.30979 C 81.352802,218.00221 81.423542,220.93099 82.696702,234.45093 C 84.014972,248.44978 87.977872,262.35678 91.876157,266.66433 C 94.119637,269.14335 95.511704,268.89661 94.820457,266.14247 C 94.294977,264.04878 94.704067,263.73916 99.217504,262.81459 C 101.95454,262.25391 104.41648,262.01772 104.68848,262.28972 C 105.62041,263.22165 105.18385,269.33239 104.13922,269.978 C 103.56512,270.33281 102.45984,270.09563 101.68302,269.45093 C 100.21707,268.2343 97.777114,268.98513 98.643134,270.38638 C 98.914134,270.82487 98.246474,271.98852 97.159444,272.97227 C 94.605587,275.28348 94.630447,279.53331 97.210744,281.74264 C 98.825334,283.12509 99.024404,283.87879 98.187824,285.44196 C 97.356624,286.99507 97.559704,287.8276 99.160104,289.42801 C 101.9559,292.22381 105.33458,291.95747 108.38358,288.70093 z M 369.18428,233.94941 C 371.11783,231.61962 369.68079,218.61983 367.70779,220.59282 C 367.44642,220.8542 366.9318,224.3042 366.5642,228.25949 C 365.88712,235.54459 366.59128,237.07379 369.18428,233.94941 z M 324.93349,213.20093 C 324.70458,212.51343 323.76866,211.80574 322.85366,211.62828 C 321.69354,211.40328 321.37268,211.7816 321.79352,212.87828 C 322.50291,214.72693 325.54569,215.03959 324.93349,213.20093 z M 377.67046,206.69696 C 377.48653,205.73664 377.30161,203.71343 377.25953,202.20093 C 377.21745,200.68843 376.72041,199.45093 376.155,199.45093 C 375.55253,199.45093 375.31605,201.00326 375.58372,203.20093 C 375.83492,205.26343 376.07253,207.53999 376.11174,208.25995 C 376.15094,208.97991 376.59294,209.31562 377.09395,209.00598 C 377.59497,208.69633 377.8544,207.65728 377.67046,206.69696 z M 249.18302,203.97151 C 249.18302,202.32982 251.19497,199.79425 255.78436,195.65217 C 262.53211,189.56208 263.23207,186.57119 256.90469,190.86506 C 254.97121,192.17716 252.35135,193.58012 251.08278,193.98274 C 247.52226,195.11281 246.05182,197.08 246.73449,199.79997 C 247.07031,201.13799 246.86783,202.5277 246.28453,202.8882 C 245.54871,203.34295 245.58519,204.12204 246.40365,205.43261 C 247.87106,207.7823 249.18302,207.09261 249.18302,203.97151 z M 87.574322,205.02825 C 87.086942,203.75816 84.183022,201.93623 84.183022,202.90053 C 84.183022,204.45354 85.632012,206.45093 86.758632,206.45093 C 87.525232,206.45093 87.881682,205.82923 87.574322,205.02825 z M 295.18302,196.44442 C 295.18302,194.51539 292.29874,192.89622 291.1282,194.16815 C 290.73198,194.59868 290.12637,195.88635 289.78239,197.02965 C 289.22876,198.86976 289.50282,199.05761 292.16999,198.66615 C 294.22624,198.36436 295.18302,197.65885 295.18302,196.44442 z M 250.44468,190.45975 C 256.39245,185.78123 261.52832,184.51115 273.93703,184.65015 C 286.34935,184.7892 294.93994,183.80382 293.52892,182.40286 C 291.85268,180.73858 279.56941,179.42942 274.55424,180.38053 C 271.8665,180.89025 265.62095,181.61016 260.67523,181.98032 C 249.74701,182.79826 243.18302,185.41995 243.18302,188.96681 C 243.18302,191.01939 244.03954,191.72043 247.29816,192.33493 C 247.63649,192.39873 249.05242,191.5549 250.44468,190.45975 z M 195.18302,580.3446 C 195.18302,579.85308 195.60025,579.45093 196.1102,579.45093 C 196.62015,579.45093 196.87602,578.17593 196.6788,576.6176 C 196.43094,574.65909 196.76218,573.78426 197.75162,573.78426 C 198.53889,573.78426 199.18302,574.11713 199.18302,574.52398 C 199.18302,574.93082 200.08302,575.02834 201.18302,574.74068 C 202.78837,574.32087 203.18302,574.71 203.18302,576.71266 C 203.18302,578.7876 202.50959,579.37859 199.18302,580.22296 C 196.92438,580.79627 195.18302,580.84922 195.18302,580.3446 z M 237.18302,576.48231 C 237.18302,575.94958 236.51181,575.77127 235.69145,576.08607 C 234.85009,576.40893 233.93962,575.9802 233.60284,575.10257 C 232.78854,572.98056 233.92062,571.41301 235.75817,572.11814 C 236.58928,572.43707 237.03305,572.93423 236.74434,573.22295 C 236.45562,573.51166 237.18007,574.58107 238.35422,575.59941 C 240.11561,577.12706 240.19989,577.45093 238.83603,577.45093 C 237.92687,577.45093 237.18302,577.01505 237.18302,576.48231 z M 209.8225,575.75708 C 208.82355,574.75813 209.0726,571.26466 210.09761,571.89814 C 210.60063,572.20903 211.24011,571.89809 211.51866,571.20716 C 211.79722,570.51623 212.06065,571.16187 212.10407,572.64191 C 212.18345,575.34762 211.01221,576.94679 209.8225,575.75708 z M 248.18302,519.45093 C 248.18302,518.35093 247.823,517.56343 247.38298,517.70093 C 246.66157,517.92636 238.65673,511.63952 234.01364,507.20093 C 233.0068,506.23843 231.02844,505.45093 229.61728,505.45093 C 228.20612,505.45093 226.06862,504.9185 224.86728,504.26774 C 223.66594,503.61699 220.99552,503.2014 218.93302,503.34421 C 216.87052,503.48702 215.18302,503.30552 215.18302,502.94088 C 215.18302,502.57623 216.60961,500.29139 218.35323,497.86345 C 221.42379,493.58777 221.58553,493.50405 223.49932,495.19998 C 225.03653,496.56218 225.36944,496.61988 224.99876,495.45986 C 224.73671,494.63977 225.08882,493.40227 225.78123,492.70986 C 227.45475,491.03634 228.52769,491.11035 227.85891,492.85316 C 227.06529,494.9213 228.07628,495.44201 230.84299,494.39011 C 232.26986,493.84761 233.06272,493.83656 232.73692,494.36371 C 231.99758,495.55999 233.13784,498.45093 234.34903,498.45093 C 234.87264,498.45093 235.08917,498.10809 234.83019,497.68906 C 234.57122,497.27004 237.01966,496.83956 240.27118,496.73246 C 246.18302,496.53771 246.18302,496.53771 246.33285,499.74432 C 246.48268,502.95093 246.48268,502.95093 246.9098,499.95093 C 247.14471,498.30093 247.68206,496.59366 248.10391,496.15699 C 249.09806,495.12791 256.4392,503.22741 255.65799,504.49143 C 255.33184,505.01915 255.71406,505.45093 256.50737,505.45093 C 259.46197,505.45093 258.89452,509.2459 255.03139,515.32186 C 251.13849,521.44467 248.18302,523.2266 248.18302,519.45093 z M 231.8103,499.92034 C 230.86417,499.22852 229.09848,498.87891 227.88654,499.14345 C 226.10796,499.53167 225.97229,499.4178 227.18302,498.55299 C 228.84279,497.36743 228.8314,497.35905 224.93302,496.89682 C 223.08014,496.67713 222.18302,497.03031 222.18302,497.97946 C 222.18302,498.8208 222.78716,499.15633 223.68302,498.81256 C 224.5973,498.46171 225.18302,498.8112 225.18302,499.70758 C 225.18302,500.76684 226.35049,501.1782 229.35677,501.1782 C 232.95475,501.1782 233.29322,501.00468 231.8103,499.92034 z M 242.18302,493.77371 C 242.18302,493.51761 242.79695,492.69414 243.54731,491.94379 C 244.56551,490.92558 245.19969,490.8676 246.04731,491.71522 C 247.74491,493.41282 247.44499,493.93573 244.68231,494.09514 C 243.3077,494.17446 242.18302,494.02982 242.18302,493.77371 z M 226.18302,478.42545 C 224.80802,477.36393 223.15695,476.4854 222.51399,476.47317 C 220.50904,476.43503 210.81092,467.51155 196.9802,452.97891 C 185.34376,440.75192 184.4809,439.62787 190.07144,443.97891 C 193.58507,446.71352 199.88507,452.35545 204.07144,456.51652 C 208.25781,460.6776 215.95802,466.93965 221.18302,470.4322 C 226.40802,473.92474 230.88123,476.94344 231.1235,477.14042 C 231.36576,477.33739 230.91576,478.14136 230.1235,478.92703 C 228.87449,480.16563 228.35072,480.09896 226.18302,478.42545 z M 237.18302,475.2634 C 242.40343,473.06629 243.75459,472.55632 246.17518,471.86954 C 248.36169,471.24916 248.50699,471.35565 247.35988,472.73782 C 246.64078,473.60429 243.80966,474.7942 241.0685,475.38207 C 234.99392,476.68483 233.88603,476.651 237.18302,475.2634 z M 175.18302,432.35291 C 172.70802,430.10052 171.58302,428.71242 172.68302,429.26824 C 174.59131,430.23248 181.03281,436.45244 180.12011,436.44955 C 179.87971,436.44878 177.65802,434.6053 175.18302,432.35291 z M 160.44731,418.0743 C 152.55652,409.63903 148.90536,404.78391 149.38055,403.35834 C 149.59268,402.72194 151.09752,403.87563 152.72463,405.92211 C 154.35175,407.96859 158.31653,412.77876 161.53527,416.61137 C 164.75401,420.44398 167.17942,423.78786 166.92507,424.04222 C 166.67071,424.29657 163.75572,421.61101 160.44731,418.0743 z M 143.82987,383.70093 C 142.25952,375.26741 142.07489,372.998 143.03668,373.95093 C 143.59179,374.50093 144.34399,377.53843 144.70822,380.70093 C 145.38311,386.56076 144.75919,388.69178 143.82987,383.70093 z "
     id="path2196" />
</svg>
